<?xml version="1.0" standalone="no"?><!DOCTYPE svg PUBLIC "-//W3C//DTD SVG 1.1//EN" "http://www.w3.org/Graphics/SVG/1.1/DTD/svg11.dtd"><svg t="1706252847312" class="icon" viewBox="0 0 1728 1024" version="1.1" xmlns="http://www.w3.org/2000/svg" p-id="4311" xmlns:xlink="http://www.w3.org/1999/xlink" width="337.5" height="200"><path d="M1390.20829264 595.84765625C1375.47562662 519.76184083 1312.93595377 462.56152344 1237.93778483 462.56152344c-74.94873047 0-137.24121094 57.20031739-151.97387696 133.28613281C1019.61747233 596.93530273 966.17447916 654.97607422 966.17447916 726.95849609 966.17447916 799.23754883 1020.35904947 858.06933594 1087.49650064 858.06933594h301.17919922C1455.51652017 858.06933594 1509.99772135 799.48474122 1509.99772135 726.95849609c-0.24719239-71.98242188-53.69018555-130.02319336-119.78942871-131.11083984z" fill="#6981FD" p-id="4312"></path><path d="M1040.97766112 362.49804687C1012.45166014 222.09277344 890.8330078 116.4921875 744.98950194 116.4921875 599.14599608 116.4921875 478.0217285 222.04333496 449.44628905 362.49804687 320.41186522 364.47558594 216.49218748 471.60876464 216.49218748 604.44995117c0 133.33557129 105.40283203 241.9519043 235.92041016 241.9519043h585.64819336c130.02319336 0 235.92041016-108.12194825 235.92041016-241.9519043-0.49438477-132.84118653-104.4140625-239.92492676-233.00354005-241.9519043z" fill="#6981FD" fill-opacity=".22" p-id="4313"></path></svg>