<?xml version="1.0" standalone="no"?><!DOCTYPE svg PUBLIC "-//W3C//DTD SVG 1.1//EN" "http://www.w3.org/Graphics/SVG/1.1/DTD/svg11.dtd"><svg t="1706620954738" class="icon" viewBox="0 0 1024 1024" version="1.1" xmlns="http://www.w3.org/2000/svg" p-id="1226" xmlns:xlink="http://www.w3.org/1999/xlink" width="200" height="200"><path d="M160 0h512l256 256v704c0 35.3472-28.6528 64-64 64H160c-35.3472 0-64-28.6528-64-64V64c0-35.3472 28.6528-64 64-64z" fill="#4CB050" p-id="1227"></path><path d="M400.256 768l114.656-164.5696L630.1632 768H684.8L541.4208 568.4736 674.4768 384H619.84L514.912 533.5104 410.496 384h-54.6176l131.9872 184.4736L345.6 768z" fill="#FFFFFF" p-id="1228"></path><path d="M672 0l256 256h-192c-35.3472 0-64-28.6528-64-64V0z" fill="#B7DFB9" p-id="1229"></path></svg>