<?xml version="1.0" standalone="no"?><!DOCTYPE svg PUBLIC "-//W3C//DTD SVG 1.1//EN" "http://www.w3.org/Graphics/SVG/1.1/DTD/svg11.dtd"><svg t="1706620966036" class="icon" viewBox="0 0 1024 1024" version="1.1" xmlns="http://www.w3.org/2000/svg" p-id="1810" xmlns:xlink="http://www.w3.org/1999/xlink" width="200" height="200"><path d="M160 0h512l256 256v704c0 35.3472-28.6528 64-64 64H160c-35.3472 0-64-28.6528-64-64V64c0-35.3472 28.6528-64 64-64z" fill="#F6AD00" p-id="1811"></path><path d="M258.528 742.0672L351.8336 604.928a14.5024 14.5024 0 0 1 22.1696-2.1824l61.664 60.416 135.296-212.064a14.5024 14.5024 0 0 1 24.8064 0.5568l168.1024 291.328a14.5024 14.5024 0 0 1-12.5696 21.7664H270.528a14.5024 14.5024 0 0 1-12.0064-22.6816z" fill="#FFF7F7" p-id="1812"></path><path d="M359.616 431.5456m-73.1456 0a73.1456 73.1456 0 1 0 146.2912 0 73.1456 73.1456 0 1 0-146.2912 0Z" fill="#FFFFFF" p-id="1813"></path><path d="M672 0l256 256h-192c-35.3472 0-64-28.6528-64-64V0z" fill="#FBDE99" p-id="1814"></path></svg>