<?xml version="1.0" standalone="no"?><!DOCTYPE svg PUBLIC "-//W3C//DTD SVG 1.1//EN" "http://www.w3.org/Graphics/SVG/1.1/DTD/svg11.dtd"><svg t="1706621007364" class="icon" viewBox="0 0 1024 1024" version="1.1" xmlns="http://www.w3.org/2000/svg" p-id="2837" xmlns:xlink="http://www.w3.org/1999/xlink" width="200" height="200"><path d="M160 0h512l256 256v704c0 35.3472-28.6528 64-64 64H160c-35.3472 0-64-28.6528-64-64V64c0-35.3472 28.6528-64 64-64z" fill="#F16C00" p-id="2838"></path><path d="M727.8016 510.9952a58.7456 58.7456 0 0 1-8.8 21.1392c-3.4944 5.312-7.04 8.8704-10.592 7.0656-3.4944 0-5.2992-22.944-6.9952-26.5024a68.5376 68.5376 0 0 1-5.2928-19.392c-1.7536-14.1184-7.0464-26.5472-15.8976-31.808-8.7936-7.0592-21.0816-12.3712-36.9728-15.936a116.0896 116.0896 0 0 1-47.5776-21.1328c-14.0864-10.624-29.9264-19.4368-38.72-30.0608-8.8512-8.8128-15.8976-10.624-19.392-8.8128-5.2992 1.7536-7.0464 7.0656-7.0464 12.3712v328.48c0 8.8704-1.7472 19.4368-5.2992 30.0608-3.4944 10.624-5.2992 21.184-14.0928 31.7568-8.7936 10.624-21.1328 17.6832-36.9728 24.7488-15.8976 7.0656-35.232 10.624-56.4224 12.3712a127.7184 127.7184 0 0 1-63.4112-12.3712 126.4384 126.4384 0 0 1-44.0256-33.568c-10.592-14.1248-15.8912-28.2496-15.8912-45.9392 0-15.872 7.104-31.7568 22.9376-45.888 14.0928-14.1248 29.9328-24.7424 47.5712-30.0544 17.5936-5.312 33.4848-8.8128 49.3248-8.8128 15.8912 0 40.5248 0 52.864 3.552 12.2944 3.5072 21.1456 5.312 28.1856 7.0656V346.688c0-10.624 3.5008-19.392 8.8-26.4512 5.2928-7.0656 14.0864-10.624 22.88-12.3712 8.8512-1.7536 15.8976 0 21.1904 5.312 5.2992 3.5008 0 10.6176 6.9952 17.6256 5.2992 7.0656 12.3456 15.936 21.1904 26.5024 8.7936 10.624 19.3344 19.4368 33.4272 28.256 12.3456 8.8128 22.9376 14.1248 31.7312 19.4368 8.8 3.5072 17.6448 7.0656 24.6912 10.624 7.04 3.5008 15.84 7.008 22.8864 12.32 7.04 5.312 15.8912 12.3712 24.6336 22.9952 8.8448 10.624 14.0928 19.3856 15.8912 30.0032 0 10.624 0 21.1904-1.7984 30.0096v0.0512z" fill="#FFFFFF" p-id="2839"></path><path d="M672 0l256 256h-192c-35.3472 0-64-28.6528-64-64V0z" fill="#F9C499" p-id="2840"></path></svg>