<?xml version="1.0" standalone="no"?><!DOCTYPE svg PUBLIC "-//W3C//DTD SVG 1.1//EN" "http://www.w3.org/Graphics/SVG/1.1/DTD/svg11.dtd"><svg t="1706621002518" class="icon" viewBox="0 0 1024 1024" version="1.1" xmlns="http://www.w3.org/2000/svg" p-id="2545" xmlns:xlink="http://www.w3.org/1999/xlink" width="200" height="200"><path d="M160 0h512l256 256v704c0 35.3472-28.6528 64-64 64H160c-35.3472 0-64-28.6528-64-64V64c0-35.3472 28.6528-64 64-64z" fill="#FA4E4E" p-id="2546"></path><path d="M678.304 689.632c-34.5536-2.5664-67.8208-15.3984-94.6944-38.496-52.4672 11.5456-102.3808 28.224-152.288 48.7616C391.6544 770.4704 354.5408 806.4 322.5472 806.4c-6.4 0-14.0736-1.28-19.1936-5.1328-14.08-6.4128-21.7536-20.5312-21.7536-34.6432 0-11.552 2.56-43.6288 124.128-96.2432 28.16-51.328 49.9072-103.936 67.8272-159.1104-15.36-30.7968-48.6272-106.5088-25.6-144.9984 7.68-14.1184 23.04-21.8176 39.68-20.5312 12.7936 0 25.5872 6.4128 33.2672 16.6784 16.64 23.0976 15.36 71.8592-6.4 143.7184a386.9056 386.9056 0 0 0 79.3408 102.656c26.88-5.1392 53.7472-8.9856 80.6208-8.9856 60.1472 1.28 69.1072 29.5104 67.8272 46.1952 0 43.6288-42.2336 43.6288-63.9872 43.6288z m-358.3104 79.552l3.84-1.28c17.9136-6.4128 31.9872-19.2448 42.2272-35.9296-19.2 7.6992-34.5536 20.5312-46.0672 37.216z m170.1952-384.9472h-3.84c-1.28 0-3.84 0-5.12 1.28-5.12 21.8112-1.28 44.9088 7.68 65.44 7.68-21.8112 7.68-44.9088 1.28-66.72z m8.96 186.0608l-1.28 2.56-1.28-1.28c-11.52 29.5168-24.32 59.0272-38.3936 87.2576l2.56-1.28v2.56a743.6992 743.6992 0 0 1 87.0208-25.664l-1.28-1.28h3.84c-19.2-19.2512-37.1136-41.0624-51.1872-62.8736z m174.0352 68.0064c-11.52 0-21.7536 0-33.2736 2.56 12.8 6.4192 25.6 8.9856 38.3936 10.272 8.96 1.28 17.92 0 25.5936-2.5664 0-3.8528-5.12-10.2656-30.7136-10.2656z" fill="#FFFFFF" p-id="2547"></path><path d="M672 0l256 256h-192c-35.3472 0-64-28.6528-64-64V0z" fill="#FDB8B8" p-id="2548"></path></svg>