<?xml version="1.0" standalone="no"?><!DOCTYPE svg PUBLIC "-//W3C//DTD SVG 1.1//EN" "http://www.w3.org/Graphics/SVG/1.1/DTD/svg11.dtd"><svg t="1706621005018" class="icon" viewBox="0 0 1024 1024" version="1.1" xmlns="http://www.w3.org/2000/svg" p-id="2692" xmlns:xlink="http://www.w3.org/1999/xlink" width="200" height="200"><path d="M160 0h512l256 256v704c0 35.3472-28.6528 64-64 64H160c-35.3472 0-64-28.6528-64-64V64c0-35.3472 28.6528-64 64-64z" fill="#4876F9" p-id="2693"></path><path d="M428.0192 768l77.1072-282.6688h1.4208L583.1808 768h43.0464L723.2 428.8h-43.52l-74.2656 284.5696H603.52L526.8864 428.8h-42.0992L407.68 713.3696h-1.8944L331.52 428.8H288l96.9728 339.2z" fill="#FFFFFF" p-id="2694"></path><path d="M672 0l256 256h-192c-35.3472 0-64-28.6528-64-64V0z" fill="#B5C8FC" p-id="2695"></path></svg>