<?xml version="1.0" standalone="no"?><!DOCTYPE svg PUBLIC "-//W3C//DTD SVG 1.1//EN" "http://www.w3.org/Graphics/SVG/1.1/DTD/svg11.dtd"><svg t="1706620996898" class="icon" viewBox="0 0 1024 1024" version="1.1" xmlns="http://www.w3.org/2000/svg" p-id="2253" xmlns:xlink="http://www.w3.org/1999/xlink" width="200" height="200"><path d="M160 0h512l256 256v704c0 35.3472-28.6528 64-64 64H160c-35.3472 0-64-28.6528-64-64V64c0-35.3472 28.6528-64 64-64z" fill="#576A95" p-id="2254"></path><path d="M582.4 629.2544v139.0592a34.7328 34.7328 0 0 1-10.208 24.5824 34.8608 34.8608 0 0 1-24.6272 10.1824H476.4352a34.8736 34.8736 0 0 1-24.6272-10.176A34.7328 34.7328 0 0 1 441.6 768.3072V629.2544h140.8z m-34.8352 79.6672H476.4352v69.824h71.1296v-69.824z m33.6704-218.7264v69.824H511.2768v-69.824h69.9584zM512.1472 0v70.4H582.4v70.4H512.1408v65.184H582.4v70.4H512.1472V345.92H582.4v69.536H512.1472v69.5296H441.6V415.4496h70.2528V345.9136H441.6V276.384h70.2528v-70.4H441.6v-70.4h70.2528V70.4H441.6V0h70.5472z" fill="#FFFFFF" p-id="2255"></path><path d="M672 0l256 256h-192c-35.3472 0-64-28.6528-64-64V0z" fill="#BBC3D4" p-id="2256"></path></svg>